<?xml version="1.0" encoding="utf-8"?>
<!-- Generator: Adobe Illustrator 16.0.0, SVG Export Plug-In . SVG Version: 6.00 Build 0)  -->
<!DOCTYPE svg PUBLIC "-//W3C//DTD SVG 1.1//EN" "http://www.w3.org/Graphics/SVG/1.1/DTD/svg11.dtd">
<svg version="1.1" id="Layer_1" xmlns="http://www.w3.org/2000/svg" xmlns:xlink="http://www.w3.org/1999/xlink" x="0px" y="0px"
	 width="30px" height="24.01px" viewBox="0 0 30 24.01" enable-background="new 0 0 30 24.01" xml:space="preserve">
<g>
	<g>
		<path d="M12.36,14.206h6.359c-0.947,2.977-3.769,5.136-7.103,5.136c-4.112,0-7.445-3.285-7.445-7.337
			c0-4.051,3.334-7.335,7.445-7.335c2.071,0,3.943,0.832,5.292,2.177l2.523-2.701C17.416,2.2,14.659,1,11.616,1
			C5.448,1,0.448,5.928,0.448,12.004c0,6.077,5,11.005,11.168,11.005c5.402,0,10.132-3.781,11.167-8.804v-3.423H12.36V14.206z
			 M27.42,10.776V8.675h-1.828v2.101h-2.131v1.801h2.131v2.101h1.828v-2.101h2.133v-1.801H27.42z"/>
	</g>
</g>
</svg>
