<?xml version="1.0" encoding="utf-8"?>
<!-- Generator: Adobe Illustrator 16.0.0, SVG Export Plug-In . SVG Version: 6.00 Build 0)  -->
<!DOCTYPE svg PUBLIC "-//W3C//DTD SVG 1.1//EN" "http://www.w3.org/Graphics/SVG/1.1/DTD/svg11.dtd">
<svg version="1.1" id="Layer_1" xmlns="http://www.w3.org/2000/svg" xmlns:xlink="http://www.w3.org/1999/xlink" x="0px" y="0px"
	 width="30px" height="24.01px" viewBox="0 0 30 24.01" enable-background="new 0 0 30 24.01" xml:space="preserve">
<path d="M25.031,6.8l0.015,0.677c0,6.918-5.207,14.893-14.727,14.893c-2.922,0-5.643-0.867-7.934-2.352
	c0.406,0.047,0.818,0.074,1.235,0.074c2.425,0,4.657-0.838,6.427-2.24c-2.264-0.041-4.176-1.557-4.834-3.635
	c0.318,0.059,0.639,0.09,0.975,0.09c0.474,0,0.93-0.063,1.364-0.182c-2.368-0.482-4.152-2.596-4.152-5.131V8.928
	C4.1,9.32,4.896,9.556,5.745,9.584C4.356,8.646,3.443,7.043,3.443,5.228c0-0.959,0.254-1.856,0.699-2.631
	C6.693,5.765,10.509,7.85,14.81,8.067c-0.089-0.383-0.133-0.786-0.133-1.194c0-2.889,2.316-5.232,5.176-5.232
	c1.488,0,2.833,0.635,3.779,1.652c1.179-0.236,2.287-0.673,3.287-1.27c-0.387,1.223-1.205,2.247-2.275,2.896
	c1.044-0.124,2.045-0.41,2.971-0.824C26.923,5.144,26.042,6.066,25.031,6.8z"/>
</svg>
