<?xml version="1.0" encoding="utf-8"?>
<!-- Generator: Adobe Illustrator 16.0.0, SVG Export Plug-In . SVG Version: 6.00 Build 0)  -->
<!DOCTYPE svg PUBLIC "-//W3C//DTD SVG 1.1//EN" "http://www.w3.org/Graphics/SVG/1.1/DTD/svg11.dtd">
<svg version="1.1" id="Layer_1" xmlns="http://www.w3.org/2000/svg" xmlns:xlink="http://www.w3.org/1999/xlink" x="0px" y="0px"
	 width="30px" height="24.01px" viewBox="0 0 30 24.01" enable-background="new 0 0 30 24.01" xml:space="preserve">
<path d="M12.413,17.281l7.762-5.275L12.413,6.73V17.281z M27.716,16.73c-0.139,1.756-1.447,3.996-3.277,4.322
	c-5.855,0.463-12.804,0.406-18.874,0c-1.893-0.243-3.138-2.568-3.278-4.322c-0.293-3.688-0.293-5.786,0-9.474
	c0.14-1.754,1.415-4.067,3.278-4.278c5.999-0.516,12.983-0.405,18.874,0c2.111,0.079,3.139,2.291,3.277,4.047
	C28.007,10.712,28.007,13.042,27.716,16.73z"/>
</svg>
